Coordinates
version=1
nRows=9
nColumns=36
inDegrees=yes

Units are S.I. units (second, meters, Newtons, ...)
If the header above contains a line with 'inDegrees', this indicates whether rotational values are in degrees (yes) or radians (no).

endheader
time	pelvis_tilt	pelvis_list	pelvis_rotation	pelvis_tx	pelvis_ty	pelvis_tz	hip_flexion_r	hip_adduction_r	hip_rotation_r	knee_angle_r	knee_angle_r_beta	ankle_angle_r	subtalar_angle_r	mtp_angle_r	hip_flexion_l	hip_adduction_l	hip_rotation_l	knee_angle_l	knee_angle_l_beta	ankle_angle_l	subtalar_angle_l	mtp_angle_l	lumbar_extension	lumbar_bending	lumbar_rotation	arm_flex_r	arm_add_r	arm_rot_r	elbow_flex_r	pro_sup_r	arm_flex_l	arm_add_l	arm_rot_l	elbow_flex_l	pro_sup_l
      4.86666670	    -29.26837476	     -0.80808665	     -9.66386351	      1.35347517	      0.86487621	      0.10360967	     64.57825622	      7.36844675	    -10.76449894	     60.55362907	      1.05686020	     27.69104957	      5.10272075	     -7.49999987	     84.45006621	     -8.05218353	      6.14043532	     25.93705820	      0.45268706	     -7.15157953	     20.70105466	     -7.49999987	    -15.21930148	      6.38353711	      6.99474947	     66.41910658	    -16.02350832	     73.77868958	    130.74768081	     83.81146220	     53.79132533	    -13.31010199	     69.35399231	    127.74226987	     98.50894593
      4.88333330	    -28.24593415	     -0.54565208	     -9.19063279	      1.35427251	      0.87502403	      0.10303363	     61.94897475	      6.93357314	    -10.16753992	     57.70010061	      1.00705673	     25.89128704	      4.62875416	     -7.49999987	     81.88955597	     -7.60130442	      5.21035739	     24.38736313	      0.42563978	     -7.56289513	     20.84433409	     -7.49999987	    -15.59955888	      5.84026352	      6.47775574	     65.76493672	    -16.01515849	     73.16747877	    130.90061860	     83.89419248	     53.55214539	    -13.77564514	     67.63719154	    127.05391784	     98.56983081
      4.90000000	    -27.63037920	     -0.28642442	     -8.54670271	      1.35897564	      0.87862001	      0.09999064	     60.25819547	      6.32199138	     -9.94592919	     55.86727623	      0.97506791	     24.83355882	      4.60578101	     -7.49999987	     80.37563081	     -6.93477915	      4.61989692	     23.75727488	      0.41464267	     -7.51392453	     20.86231809	     -7.49999987	    -15.20240963	      5.56467556	      5.60606351	     64.96467685	    -15.80177936	     72.74795366	    132.25884989	     88.57355731	     52.81912757	    -13.32362298	     67.79846661	    128.17969604	    102.23339771
      4.91666670	    -27.03920518	     -0.16502743	     -7.87994144	      1.35937564	      0.88667124	      0.09951996	     58.71432641	      5.88222418	     -9.59653150	     54.20444324	      0.94604600	     23.85725037	      4.37722802	     -7.49999987	     79.13699768	     -6.25542611	      4.30897153	     23.51544033	      0.41042186	     -7.34208774	     20.45982852	     -7.49999987	    -14.59585718	      5.34356591	      4.98724997	     64.33218200	    -15.77635040	     71.67203194	    133.48102530	     88.75566197	     52.58206924	    -12.76853825	     67.15156307	    129.46647572	    102.21086883
      4.93333330	    -26.55799477	      0.08794246	     -7.23330202	      1.35926094	      0.89107980	      0.09902009	     57.49997977	      5.38133063	     -9.31088064	     52.78017162	      0.92118777	     22.63715370	      4.02993274	     -7.49999987	     78.09095211	     -5.50864626	      3.84202333	     23.48117909	      0.40982389	     -7.09125963	     19.97080787	     -7.49999987	    -13.89320732	      4.95956475	      4.38937078	     64.23748841	    -15.90048046	     69.68291497	    134.39277014	     87.93323872	     53.05809494	    -13.17914965	     63.15699654	    129.05860061	    100.96078211
      4.95000000	    -25.48698788	      0.29248998	     -6.93851884	      1.36052211	      0.91514656	      0.09880405	     54.56626709	      5.15849962	     -8.62996805	     49.38904519	      0.86200145	     20.22703806	      3.17245111	     -7.49999987	     75.08344918	     -4.92966787	      3.14167815	     21.83402278	      0.38107559	     -8.02683315	     19.75708073	     -7.49999987	    -14.58912108	      4.72523002	      4.06876332	     63.59693356	    -16.36284462	     70.75030862	    133.51958718	     86.07824627	     52.06383975	    -13.19470116	     65.00592334	    128.13076716	     97.01352232
      4.96666670	    -24.04509324	      0.49007829	     -6.79820256	      1.36183781	      0.93112698	      0.09838410	     50.86522471	      5.11489203	     -7.58756222	     45.35061764	      0.79151760	     17.67011455	      2.45102497	     -7.49999987	     71.58733535	     -4.54548571	      2.62783115	     20.23057161	      0.35309008	     -8.56795221	     19.59942447	     -7.49999987	    -15.85635941	      4.18943378	      3.80069793	     62.96496789	    -16.40730615	     69.44145612	    132.89861018	     92.31911969	     51.70757843	    -13.45015585	     64.58846879	    127.67202880	    101.98890466
      4.98333330	    -23.50719577	      0.69120126	     -6.66339009	      1.36700078	      0.93209568	      0.09584892	     48.67118729	      4.81823988	     -7.19080347	     42.34558046	      0.73906980	     16.00185789	      3.10981145	     -7.49999987	     69.69019097	     -4.39163125	      2.00778877	     19.68150538	      0.34350707	     -8.23162347	     19.72807048	     -7.49999987	    -14.77970302	      3.96842061	      3.28630426	     62.21211787	    -15.60878862	     69.08097696	    134.73268762	     93.07708127	     50.90574844	    -11.89609049	     65.66185073	    130.11219202	    102.97847099
      5.00000000	    -22.34184548	      0.65421772	     -6.39041395	      1.36676565	      0.93765548	      0.09556084	     46.00241350	      4.67114109	     -6.82768568	     39.67158649	      0.69239980	     14.26319572	      2.97815803	     -7.49999987	     67.44012445	     -4.16296705	      1.84893908	     19.06928982	      0.33282189	     -7.94668896	     19.44303363	     -7.49999987	    -14.86091604	      3.73917804	      2.82109732	     61.44598359	    -15.49590991	     66.89794551	    134.59296981	     93.11558807	     51.47349099	    -11.90548536	     65.07884046	    130.11685332	    102.91245699
